<?xml version="1.0" encoding="utf-8"?>
<!-- Generator: Adobe Illustrator 22.1.0, SVG Export Plug-In . SVG Version: 6.00 Build 0)  -->
<svg version="1.1" id="Layer_1" xmlns="http://www.w3.org/2000/svg" xmlns:xlink="http://www.w3.org/1999/xlink" x="0px" y="0px"
	 viewBox="0 0 913 121.7" style="enable-background:new 0 0 913 121.7;" xml:space="preserve">
<style type="text/css">
	.st0{fill:#1E1E32;}
	.st1{fill:#EB5665;}
</style>
<path class="st0" d="M209.4,109.8c0,2.4-0.8,4.6-2.4,6.7c-1.6,2.1-4.1,3-7.3,3h-43.4c-2.6,0-4.9-1-6.9-3c-1.9-2.1-3-4.3-3-6.9V10.9
	c0-3.3,1-5.7,3-7.3c2.1-1.6,4.3-2.4,6.9-2.4c2.6,0,4.8,0.8,6.9,2.4s3,4.1,3,7.3v89h33.5c3.3,0,5.7,1,7.3,3
	C208.6,105,209.4,107.2,209.4,109.8z"/>
<path class="st0" d="M241.8,117.9c-2.1,1.6-4.3,2.4-6.9,2.4c-2.6,0-4.8-0.8-6.9-2.4c-2.1-1.6-3-4-3-7.3V10.9c0-3.3,1-5.7,3-7.3
	c2.1-1.6,4.3-2.4,6.9-2.4c2.6,0,4.8,0.8,6.9,2.4c2.1,1.6,3,4.1,3,7.3v99.8C245,113.9,243.9,116.3,241.8,117.9z"/>
<path class="st0" d="M334.7,117.4c-1.9,1.9-4.3,2.9-6.9,2.9H326c-3.2,0-5.4-0.8-7-2.4c-1.4-1.6-2.7-3.7-3.7-5.9l-27.4-63.6v62.2
	c0,3.3-1,5.7-3,7.3c-2.1,1.6-4.3,2.4-6.9,2.4s-4.8-0.8-6.9-2.4s-3-4-3-7.3V10.9c0-2.6,1-4.9,3-6.9c1.9-1.9,4.3-3,6.9-3h2.2
	c3.2,0,5.4,0.8,7,2.6c1.4,1.8,2.7,3.7,3.7,5.9l26.9,61.2V10.8c0-3.3,1-5.7,3-7.3c2.1-1.6,4.3-2.4,6.9-2.4s4.8,0.8,6.9,2.4s3,4,3,7.3
	v100C337.8,113.3,336.7,115.5,334.7,117.4z"/>
<path class="st0" d="M429.4,110.9c0,2.9-1.1,5.1-3.2,6.9s-4.5,2.6-7,2.6c-1.8,0-3.3-0.5-4.8-1.1c-1.6-0.8-2.9-2.2-3.8-4.3
	l-21.7-44.8l-9.4,13.7v26.8c0,3.3-1,5.7-3,7.3c-2.1,1.6-4.3,2.4-6.9,2.4s-4.8-0.8-6.9-2.4s-3-4-3-7.3V10.9c0-3.3,1-5.7,3-7.3
	s4.3-2.4,6.9-2.4s4.8,0.8,6.9,2.4s3,4.1,3,7.3v37.9l29.3-43.5c1.1-1.6,2.4-2.7,3.7-3.3c1.4-0.6,2.7-1,4.3-1c2.6,0,4.9,1,7,2.9
	S427,8,427,10.8c0,1.8-0.6,3.7-1.9,5.6l-23.6,34.9l26.8,55.2C429.1,107.9,429.4,109.5,429.4,110.9z"/>
<path class="st1" d="M511.1,99.7c-1.8,4.1-4.3,7.7-7.3,10.8c-3,3-6.7,5.4-10.8,7.2c-4.1,1.8-8.6,2.7-13.4,2.7H478
	c-4.6,0-9.1-0.8-13.2-2.7c-4.1-1.8-7.8-4.1-10.8-7.2s-5.4-6.7-7.3-10.8c-1.8-4.1-2.7-8.5-2.7-13.2V10.9c0-3.3,1-5.7,3-7.3
	s4.3-2.4,6.9-2.4s4.8,0.8,6.9,2.4s3,4.1,3,7.3v75.6c0,4,1.4,7.3,4.1,10.2c2.7,2.9,6.2,4.3,10,4.3h1.6c4,0,7.3-1.4,10.2-4.3
	c2.9-2.9,4.3-6.2,4.3-10.2V10.8c0-3.3,1-5.7,3-7.3c2.1-1.6,4.3-2.4,6.9-2.4s4.8,0.8,6.9,2.4s3,4.1,3,7.3v75.6
	C513.8,91.1,512.8,95.6,511.1,99.7z"/>
<path class="st1" d="M600.8,56.5c-3.7,5.6-8.6,9.6-14.7,12.3l17.9,37.6c0.8,1.8,1.1,3.2,1.1,4.5c0,2.9-1.1,5.1-3.2,6.9
	c-2.2,1.8-4.5,2.7-7.2,2.7c-1.8,0-3.3-0.5-4.8-1.3c-1.6-0.8-2.7-2.2-3.7-4.3l-20.6-43.2h-10.2v39.1c0,3.3-1,5.7-3,7.3
	c-2.1,1.6-4.3,2.4-6.9,2.4c-2.6,0-4.8-0.8-6.9-2.4c-2.1-1.6-3-4-3-7.3V11.9c0-2.6,1-4.9,3-6.9c1.9-1.9,4.3-3,6.9-3h26.6
	c4.8,0,9.2,0.8,13.4,2.7c4.1,1.8,7.8,4.1,10.8,7.2c3,3,5.4,6.7,7.2,10.8s2.7,8.6,2.7,13.4v1.6C606.4,44.7,604.5,51.1,600.8,56.5z
	 M586.6,36c0-4-1.3-7.3-4-10.2c-2.6-2.9-5.9-4.3-9.9-4.3h-17.4v30.6h17.9c3.8,0,7-1.4,9.6-4.3c2.6-2.9,3.7-6.2,3.7-10.2V36H586.6z"
	/>
<path class="st1" d="M641.3,117.9c-2.1,1.6-4.3,2.4-6.9,2.4c-2.6,0-4.8-0.8-6.9-2.4c-2.1-1.6-3-4-3-7.3V10.9c0-3.3,1-5.7,3-7.3
	s4.3-2.4,6.9-2.4c2.6,0,4.8,0.8,6.9,2.4s3,4.1,3,7.3v99.8C644.5,113.9,643.4,116.3,641.3,117.9z"/>
<path class="st1" d="M732.7,100.2c-1.8,4.1-4.1,7.7-7.2,10.7s-6.7,5.3-10.8,7c-4.1,1.6-8.6,2.4-13.4,2.4h-1.6
	c-4.6,0-9.1-0.8-13.2-2.6c-4.1-1.8-7.8-4-10.8-7c-3-2.9-5.4-6.4-7.3-10.5c-1.9-4.1-2.7-8.5-2.7-13.2V34.4c0-4.8,1-9.1,2.7-13.2
	s4.3-7.5,7.3-10.5s6.7-5.4,10.8-7c4.1-1.8,8.5-2.6,13.2-2.6h1.6c4.8,0,9.2,0.8,13.4,2.6c4.1,1.8,7.8,4,10.8,7s5.4,6.5,7.2,10.5
	s2.7,8.5,2.7,13.2V87C735.4,91.8,734.4,96.2,732.7,100.2z M715.6,34.4c0-4-1.4-7.2-4.1-9.9c-2.7-2.6-6.2-3.8-10-3.8h-1.6
	c-4,0-7.3,1.3-10,3.8c-2.7,2.6-4.1,5.9-4.1,9.9V87c0,4,1.4,7.3,4.1,9.9c2.7,2.7,6.2,4,10,4h1.6c4,0,7.3-1.3,10-3.8
	c2.7-2.6,4.1-5.9,4.1-9.9V34.4z"/>
<path class="st1" d="M822.6,99.7c-1.8,4.1-4.3,7.7-7.3,10.8c-3,3-6.7,5.4-10.8,7.2c-4.1,1.8-8.6,2.7-13.4,2.7h-1.6
	c-4.6,0-9.1-0.8-13.2-2.7c-4.1-1.8-7.8-4.1-10.8-7.2c-3-3-5.4-6.7-7.3-10.8c-1.8-4.1-2.7-8.5-2.7-13.2V10.9c0-3.3,1-5.7,3-7.3
	c2.1-1.6,4.3-2.4,6.9-2.4s4.8,0.8,6.9,2.4s3,4.1,3,7.3v75.6c0,4,1.4,7.3,4.1,10.2c2.7,2.9,6.2,4.3,10,4.3h1.6c4,0,7.3-1.4,10.2-4.3
	s4.3-6.2,4.3-10.2V10.8c0-3.3,1-5.7,3-7.3c2.1-1.6,4.3-2.4,6.9-2.4s4.8,0.8,6.9,2.4s3,4.1,3,7.3v75.6
	C825.3,91.1,824.4,95.6,822.6,99.7z"/>
<path class="st1" d="M912.8,88.1c0,4.9-1,9.2-2.7,13.2c-1.8,4-4.1,7.3-7.3,10.2c-3.2,2.9-6.7,4.9-11,6.5c-4.1,1.6-8.8,2.2-13.7,2.2
	h-1.6c-4.5,0-8.9-0.8-13.1-2.4c-4.1-1.6-7.8-3.8-11-6.7c-3.2-2.9-5.7-6.5-7.5-10.7c-1.8-4.1-2.7-8.9-2.7-14.3c0-3.3,1-5.7,3-7.3
	c2.1-1.6,4.3-2.4,6.9-2.4s4.8,0.8,6.9,2.4c2.1,1.6,3,4.1,3,7.3c0,4.8,1.3,8.3,4,10.8c2.7,2.4,6.2,3.7,10.5,3.7h1.6
	c4.3,0,7.8-1.1,10.7-3.2s4.3-5.4,4.3-9.7c0-3.5-1.3-6.5-3.7-9.2s-5.4-5.1-9.2-7.3c-3.7-2.2-7.7-4.5-12-6.9c-4.3-2.2-8.3-4.8-12-7.7
	s-6.7-6.2-9.2-9.9c-2.4-3.7-3.7-8.1-3.7-13.4v-3.5c0-4.6,1-8.8,3-12.3c2.1-3.5,4.6-6.5,8-9.1c3.2-2.6,6.9-4.3,10.7-5.7
	c3.8-1.3,7.7-1.9,11.5-1.9h1.6c4.5,0,8.6,0.6,12.6,1.9s7.5,3.2,10.5,5.6s5.6,5.3,7.3,8.6c1.8,3.3,2.7,7,2.7,11.2
	c0,3.3-1.1,5.7-3.2,7.2c-2.1,1.6-4.5,2.2-7,2.2c-2.4,0-4.6-0.8-6.5-2.2c-2.1-1.4-3-3.7-3-6.9c0-2.2-1.3-4.1-3.7-5.7
	c-2.6-1.6-5.7-2.4-9.9-2.4h-1.6c-3.7,0-6.9,1-9.4,2.9c-2.6,1.9-3.8,4.5-3.8,7.8v2.6c0,2.2,1.3,4.3,3.7,6.2s5.4,4,9.2,6.1
	c3.7,2.1,7.7,4.3,12,6.9c4.3,2.4,8.3,5.3,12,8.6c3.7,3.3,6.7,7,9.2,11.3C911.6,77.1,912.8,82.2,912.8,88.1z"/>
<path class="st0" d="M83.3,66.3L64.9,84.4c-2.3,2.3-4.5,3.5-6.5,3.7s-3.5-0.3-4.6-1.5s-1.4-2.8-1.1-4.9c0.3-2.1,1.6-4.3,3.9-6.5
	l18.3-18.1c2.3-2.3,4.4-3.5,6.4-3.6s3.5,0.4,4.5,1.5c1,1.2,1.5,2.8,1.2,4.8C86.8,61.9,85.6,64,83.3,66.3z"/>
<path class="st0" d="M59.9,114.9c-9.8,9.4-25.5,9-34.9-0.8s-9-25.5,0.8-34.9s25.5-9,34.9,0.8C70.1,89.9,69.7,105.5,59.9,114.9z
	 M51.4,106c4.9-4.7,5.1-12.5,0.4-17.4s-12.5-5.1-17.4-0.4s-5.1,12.5-0.4,17.4C38.6,110.5,46.5,110.7,51.4,106z"/>
<path class="st0" d="M62.3,28.6l15.8,4.6c2,0.6,3.3,1.6,3.9,3.1s0.7,3,0.3,4.5c-0.4,1.5-1.3,2.7-2.7,3.7c-1.4,0.9-3,1.1-5,0.5
	l-15.8-4.6c-2-0.6-3.3-1.6-3.9-3.1c-0.6-1.5-0.7-3-0.2-4.5c0.4-1.5,1.3-2.7,2.6-3.7C58.7,28.2,60.3,28,62.3,28.6z"/>
<path class="st0" d="M89.9,68.8c13.1,3.8,26.8-3.7,30.6-16.7c3.8-13.1-3.7-26.8-16.7-30.6S77,25.2,73.2,38.2
	C69.3,51.3,76.9,65,89.9,68.8z M85,41.7c1.9-6.5,8.8-10.3,15.3-8.4s10.3,8.8,8.4,15.3S99.9,58.9,93.4,57S83.1,48.2,85,41.7z"/>
<path class="st1" d="M27.4,62.9l-3.9-16c-0.5-2-0.2-3.7,0.8-5s2.3-2.1,3.8-2.5s3-0.2,4.5,0.5s2.5,2.1,3,4.1l3.9,16
	c0.5,2,0.2,3.6-0.8,4.9s-2.3,2.1-3.8,2.5s-3,0.2-4.5-0.4C28.9,66.2,27.9,64.9,27.4,62.9z"/>
<g>
	<path class="st1" d="M0.5,30.5C-2.7,17.3,5.4,3.9,18.7,0.7c13.2-3.2,26.6,4.9,29.8,18.2c3.2,13.2-4.9,26.6-18.2,29.8
		C17.1,51.9,3.7,43.7,0.5,30.5z M12.5,27.6c1.6,6.6,8.3,10.7,14.9,9.1s10.7-8.3,9.1-14.9s-8.3-10.7-14.9-9.1S10.9,21,12.5,27.6z"/>
</g>
</svg>
