<svg id="Calque_1" data-name="Calque 1" xmlns="http://www.w3.org/2000/svg" viewBox="0 0 119.46 119.45"><title>logo_solo</title><g id="g156"><path id="path158" d="M84.77,80.59l-18,17.76q-3.38,3.34-6.33,3.61a5.1,5.1,0,0,1-4.55-1.44,5.66,5.66,0,0,1-1.08-4.79q0.43-3.06,3.81-6.4l18-17.75Q80,68.24,82.9,68a5.12,5.12,0,0,1,4.44,1.5,5.69,5.69,0,0,1,1.18,4.72q-0.37,3-3.75,6.34" transform="translate(-2.89 -15.55)" style="fill:#1e1e32"/></g><g id="g160"><path id="path162" d="M53.49,119.57a12.11,12.11,0,1,0-17.12-.41h0a12.13,12.13,0,0,0,17.12.41m8.36,8.72a24.21,24.21,0,1,1,.77-34.24l0,0a24.21,24.21,0,0,1-.81,34.23" transform="translate(-2.89 -15.55)" style="fill:#1e1e32"/></g><g id="g164"><path id="path166" d="M64.21,43.59l15.5,4.55a5.49,5.49,0,0,1,3.87,3.09,6.53,6.53,0,0,1-2.36,8,5.49,5.49,0,0,1-4.9.52l-15.5-4.55A5.35,5.35,0,0,1,57,52.14a6.71,6.71,0,0,1,2.36-8,5.34,5.34,0,0,1,4.84-.53" transform="translate(-2.89 -15.55)" style="fill:#1e1e32"/></g><g id="g168"><path id="path170" d="M86.5,56.47a12.11,12.11,0,1,1,8.2,15,12.11,12.11,0,0,1-8.2-15M91.3,83.13A24.21,24.21,0,1,0,74.9,53.07v0a24.21,24.21,0,0,0,16.41,30" transform="translate(-2.89 -15.55)" style="fill:#1e1e32"/></g><g id="g172"><path id="path174" d="M29.95,77.32L26.13,61.59a5.51,5.51,0,0,1,.76-4.84A6.55,6.55,0,0,1,35,54.81a5.51,5.51,0,0,1,2.91,4l3.81,15.62A5.34,5.34,0,0,1,41,79.26a6.71,6.71,0,0,1-8.14,1.94,5.36,5.36,0,0,1-2.91-3.92" transform="translate(-2.89 -15.55)" style="fill:#f55564"/></g><g id="g176"><path id="path178" d="M15.32,42.63A12.11,12.11,0,1,0,24.23,28a12.11,12.11,0,0,0-8.91,14.63M3.58,45.48A24.21,24.21,0,1,1,32.82,63.31h0A24.21,24.21,0,0,1,3.58,45.48" transform="translate(-2.89 -15.55)" style="fill:#f55564"/></g></svg>